<?xml version="1.0" encoding="UTF-8" standalone="no"?>
<!-- Created with Inkscape (http://www.inkscape.org/) -->

<svg
   xmlns:dc="http://purl.org/dc/elements/1.1/"
   xmlns:cc="http://creativecommons.org/ns#"
   xmlns:rdf="http://www.w3.org/1999/02/22-rdf-syntax-ns#"
   xmlns:svg="http://www.w3.org/2000/svg"
   xmlns="http://www.w3.org/2000/svg"
   xmlns:sodipodi="http://sodipodi.sourceforge.net/DTD/sodipodi-0.dtd"
   xmlns:inkscape="http://www.inkscape.org/namespaces/inkscape"
   width="32.279167mm"
   height="7.9375005mm"
   viewBox="0 0 32.279167 7.9375005"
   version="1.1"
   id="svg8"
   inkscape:version="0.92.4 (5da689c313, 2019-01-14)"
   sodipodi:docname="button_logo.svg"
   inkscape:export-filename="D:\Documents\IFTFinalClass\IFT402\img\button_logo.png"
   inkscape:export-xdpi="318.86401"
   inkscape:export-ydpi="318.86401">
  <defs
     id="defs2" />
  <sodipodi:namedview
     id="base"
     pagecolor="#ffffff"
     bordercolor="#666666"
     borderopacity="1.0"
     inkscape:pageopacity="0.0"
     inkscape:pageshadow="2"
     inkscape:zoom="7.9195959"
     inkscape:cx="64.313553"
     inkscape:cy="6.7360993"
     inkscape:document-units="mm"
     inkscape:current-layer="layer1"
     showgrid="false"
     inkscape:snap-smooth-nodes="true"
     inkscape:window-width="1920"
     inkscape:window-height="1017"
     inkscape:window-x="-8"
     inkscape:window-y="-8"
     inkscape:window-maximized="1"
     fit-margin-top="0"
     fit-margin-left="0"
     fit-margin-right="0"
     fit-margin-bottom="0">
    <inkscape:grid
       type="xygrid"
       id="grid815"
       originx="-1.1339283"
       originy="-287.54543" />
  </sodipodi:namedview>
  <metadata
     id="metadata5">
    <rdf:RDF>
      <cc:Work
         rdf:about="">
        <dc:format>image/svg+xml</dc:format>
        <dc:type
           rdf:resource="http://purl.org/dc/dcmitype/StillImage" />
        <dc:title></dc:title>
      </cc:Work>
    </rdf:RDF>
  </metadata>
  <g
     inkscape:label="Layer 1"
     inkscape:groupmode="layer"
     id="layer1"
     transform="translate(-1.1339283,-1.5170721)">
    <path
       style="opacity:0.42900002;fill:#47149b;fill-opacity:1;stroke:none;stroke-width:0.26458332;stroke-opacity:1"
       d="M 1.1339283,1.5170721 V 6.8087387 A 2.645833,2.645833 0 0 0 3.7797616,9.454572 H 4.3089283 V 9.4008285 A 2.645833,2.645833 0 0 0 6.4255949,6.8087387 2.645833,2.645833 0 0 0 4.3089283,4.2192328 V 4.1629054 H 3.7797616 A 2.645833,2.645833 0 0 0 2.456845,4.5215399 V 1.5170721 Z M 6.4255949,6.8087387 A 2.645833,2.645833 0 0 0 9.0714282,9.454572 H 9.6005949 V 9.4008285 A 2.645833,2.645833 0 0 0 11.717262,6.8087387 c 0,1.4612535 1.184579,2.6458333 2.645833,2.6458333 h 0.529166 V 9.401345 c 1.207678,-0.2451533 2.116667,-1.3125804 2.116667,-2.5926065 h -1.322917 c 0,0.7306268 -0.59229,1.3229167 -1.322916,1.3229167 -0.730626,0 -1.322917,-0.5922899 -1.322917,-1.3229167 V 5.4858221 h 2.645833 V 4.1629054 H 13.040178 V 2.8399888 1.5170721 H 11.717262 V 4.1629054 H 10.394345 V 6.8087387 A 1.3229164,1.3229164 0 0 1 9.0714282,8.1316554 1.3229164,1.3229164 0 0 1 7.7485116,6.8087387 V 4.1629054 H 6.4255949 Z m 10.5833331,0 c 0,1.4612541 1.184579,2.6458333 2.645833,2.6458333 h 0.529167 V 9.401345 c 1.207677,-0.2451533 2.116667,-1.3125799 2.116667,-2.5926065 h -1.322917 c 0,0.730627 -0.592291,1.3229167 -1.322917,1.3229167 -0.730625,0 -1.322916,-0.5922897 -1.322916,-1.3229167 V 5.4858221 h 2.645833 V 4.1629054 H 18.331845 V 2.8399888 1.5170721 h -1.322917 z m 5.291667,0 a 2.6458338,2.6458338 0 0 0 2.645833,2.6458333 h 0.529167 V 9.4008285 A 2.6458338,2.6458338 0 0 0 27.592261,6.8087387 2.6458338,2.6458338 0 0 0 25.475595,4.2192328 v -0.056327 h -0.529167 a 2.6458338,2.6458338 0 0 0 -2.645833,2.6458329 z m 5.291666,0 V 9.454572 h 1.322917 V 9.097488 6.8087387 a 1.3229164,1.3229164 0 0 1 1.322917,-1.3229166 1.3229164,1.3229164 0 0 1 1.322916,1.3229166 V 9.0959375 9.454572 h 1.322917 V 6.8087387 A 2.645833,2.645833 0 0 0 30.767261,4.2192328 V 4.1629054 H 30.238095 A 2.645833,2.645833 0 0 0 28.915178,4.5215399 V 4.1629054 H 27.592261 Z M 24.064312,5.0450223 A 0.88194456,0.88194456 0 0 1 24.946428,5.9266221 0.88194456,0.88194456 0 0 1 24.064312,6.8087387 0.88194456,0.88194456 0 0 1 23.18271,5.9266221 0.88194456,0.88194456 0 0 1 24.064312,5.0450223 Z M 3.7797616,5.4858221 A 1.3229164,1.3229164 0 0 1 5.1026783,6.8087387 1.3229164,1.3229164 0 0 1 3.7797616,8.1316554 1.3229164,1.3229164 0 0 1 2.456845,6.8087387 1.3229164,1.3229164 0 0 1 3.7797616,5.4858221 Z M 25.817693,6.8087387 a 0.88194456,0.88194456 0 0 1 0.01085,0 0.88194456,0.88194456 0 0 1 0.881602,0.8821169 0.88194456,0.88194456 0 0 1 -0.881602,0.8815998 0.88194456,0.88194456 0 0 1 -0.352949,-0.074414 V 6.8836695 a 0.88194456,0.88194456 0 0 1 0.342098,-0.074931 z"
       id="path829"
       inkscape:connector-curvature="0" />
    <path
       style="opacity:1;fill:#cbbbe6;fill-opacity:1;stroke:none;stroke-width:0.26458332;stroke-opacity:1"
       d="m 1.6630962,1.5170724 v 5.291666 a 2.6458332,2.6458332 0 0 0 2.645833,2.645834 2.6458332,2.6458332 0 0 0 2.645833,-2.645834 2.6458332,2.6458332 0 0 0 -2.645833,-2.645833 2.6458332,2.6458332 0 0 0 -1.322917,0.358635 v -3.004468 z m 5.291666,5.291666 a 2.6458332,2.6458332 0 0 0 2.645834,2.645834 2.6458332,2.6458332 0 0 0 2.6458328,-2.645834 c 0,1.461254 1.184579,2.645834 2.645833,2.645834 1.461254,0 2.645833,-1.18458 2.645833,-2.645834 h -1.322916 c 0,0.730627 -0.592291,1.322917 -1.322917,1.322917 -0.730626,0 -1.322916,-0.59229 -1.322916,-1.322917 v -1.322916 h 2.645833 v -1.322917 h -2.645833 v -1.322917 -1.322916 h -1.322917 v 2.645833 h -1.322917 v 2.645833 a 1.3229166,1.3229166 0 0 1 -1.3229158,1.322917 1.3229166,1.3229166 0 0 1 -1.322917,-1.322917 v -2.645833 h -1.322917 z m 10.5833328,0 c 0,1.461254 1.18458,2.645834 2.645834,2.645834 1.461254,0 2.645833,-1.18458 2.645833,-2.645834 h -1.322917 c 0,0.730627 -0.592291,1.322917 -1.322916,1.322917 -0.730626,0 -1.322917,-0.59229 -1.322917,-1.322917 v -1.322916 h 2.645833 v -1.322917 h -2.645833 v -1.322917 -1.322916 h -1.322917 z m 5.291667,0 a 2.6458338,2.6458338 0 0 0 2.645833,2.645834 2.6458338,2.6458338 0 0 0 2.645834,-2.645834 2.6458338,2.6458338 0 0 0 -2.645834,-2.645833 2.6458338,2.6458338 0 0 0 -2.645833,2.645833 z m 5.291667,0 v 2.645834 h 1.322916 v -0.357084 -2.28875 a 1.3229166,1.3229166 0 0 1 1.322917,-1.322916 1.3229166,1.3229166 0 0 1 1.322917,1.322916 v 2.287199 0.358635 h 1.322916 v -2.645834 a 2.6458332,2.6458332 0 0 0 -2.645833,-2.645833 2.6458332,2.6458332 0 0 0 -1.322917,0.358635 V 4.1629054 H 28.121429 Z M 24.59348,5.0450224 a 0.88194456,0.88194456 0 0 1 0.882115,0.8816 0.88194456,0.88194456 0 0 1 -0.882115,0.882116 0.88194456,0.88194456 0 0 1 -0.881602,-0.882116 0.88194456,0.88194456 0 0 1 0.881602,-0.8816 z m -20.2845508,0.4408 a 1.3229166,1.3229166 0 0 1 1.322917,1.322916 1.3229166,1.3229166 0 0 1 -1.322917,1.322917 1.3229166,1.3229166 0 0 1 -1.322917,-1.322917 1.3229166,1.3229166 0 0 1 1.322917,-1.322916 z m 22.0487818,1.322916 a 0.88194456,0.88194456 0 0 1 0.881602,0.882117 0.88194456,0.88194456 0 0 1 -0.881602,0.8816 0.88194456,0.88194456 0 0 1 -0.882116,-0.8816 0.88194456,0.88194456 0 0 1 0.882116,-0.882117 z"
       id="path829-4"
       inkscape:connector-curvature="0" />
  </g>
</svg>
